<svg version="1" xmlns="http://www.w3.org/2000/svg" width="1333.333" height="1333.333" viewBox="0 0 1000.000000 1000.000000"><path d="M512.9.4c-.2.2-2.4.6-4.9.9-2.5.3-8.5 1.7-13.3 3.1-29.2 8.6-53.5 31.2-65.5 61.1-3.9 9.8-7.9 25.3-8.8 34.3-.4 3.7-.8 7.4-1 8.2-.1.8-.3 111.5-.3 246.1l-.1 244.5H296.8l.6-30.5c.7-29.8 1-42.7 2.1-89.1.5-20.6.7-31.5 2-87 .2-10.2.7-32.2 1.1-49 1-43.3 1-43.8-1.2-45.8-1.1-1-6.8-6-12.9-11.2-9.8-8.5-15.6-13.5-18.9-16.5-.6-.6-4.2-3.7-8.1-7-3.8-3.3-7.2-6.2-7.5-6.5-.3-.3-3.6-3.2-7.5-6.5-3.8-3.3-8.3-7.2-10-8.7-1.6-1.4-4.1-3.6-5.5-4.8-1.4-1.2-5.2-4.5-8.4-7.3-3.3-2.9-10-8.7-15-13.1-5-4.3-10.4-9-12.1-10.5-15.3-13.8-32.8-28.1-34.3-28.1-1.1 0-2.6.8-3.6 1.8-1.5 1.7-1.6 8.9-1.2 92.3.3 49.7.8 148.2 1.2 218.9.9 194 1 205.4 1.8 207.2.4.9 1.5 1.8 2.5 2.1 2 .5 3.1.5 227.9-1.8l29.2-.3V847c0 134.9.2 150 1.6 151.4 1.4 1.4 12.2 1.6 103.8 1.6 96.5 0 102.4-.1 103.9-1.8 1.4-1.6 1.6-21.3 1.6-219.7 0-119.9 0-219.1.1-220.5 0-2.4.2-2.5 7.3-2.6 8-.1 56.4-1.2 81.8-1.9 9-.2 28.1-.7 42.4-1 14.3-.4 31.4-.8 38-1 6.6-.2 17.9-.4 25-.5 12.2-.2 16.1-.9 17.7-3.3.3-.6.6-89.5.6-197.6.1-170.5-.1-196.9-1.4-198.9-2.8-4.3-5.4-3.1-19.9 9.7-1.7 1.4-7.7 6.6-13.5 11.6-5.8 4.9-15.7 13.5-22 19-6.4 5.5-14.2 12.2-17.4 15-3.2 2.7-6.6 5.7-7.6 6.5-3.8 3.3-12.7 10.9-15.5 13.3-2.9 2.4-3 2.9-3 10.4.1 4.3.5 13.6.9 20.8.5 7.1.9 15.2 1.1 18 .6 11.9 1.8 33.3 2 37 .2 2.2.6 9.8.9 17 .4 7.1.9 15.7 1.1 19 .4 5.4.9 15 2 36.5.7 14.2 1.7 31.5 2 36.4.2 2.7.7 11.3 1 19 .4 7.8.9 14.9 1.1 15.8.3 1.7-3.2 1.8-62.4 1.8h-62.7V281.2c0-195 .4-181.4-6.1-204.1-11-38.1-42.2-67.6-79.8-75.2-4.8-1-29.9-2.2-30.7-1.5z"/></svg>