<svg xmlns="http://www.w3.org/2000/svg" viewBox="-52.22 -52.22 365.51 365.51" width="100" height="100" stroke="#000" stroke-width="0"><path d="M233.88 79.356V46.232c0-21.702-15.393-38.073-35.805-38.073H62.098c-21.49 0-40.342 17.791-40.342 38.073v34.533C9.089 85.252 0 97.299 0 111.501v59.83c0 18.025 14.609 32.634 32.634 32.634v48.951H228.44v-48.951c18.025 0 32.634-14.609 32.634-32.634v-59.83c.001-16.165-11.764-29.551-27.194-32.145zm-16.317 124.609v38.073H43.513v-59.829h174.05v21.756zM28.076 100.623c1.479-3.204 4.705-5.439 8.463-5.439 3.758 0 6.984 2.235 8.463 5.439a9.3 9.3 0 01.881 3.905c0 5.162-4.183 9.344-9.344 9.344s-9.344-4.183-9.344-9.344c0-1.398.327-2.714.881-3.905zm50.442 3.905a9.343 9.343 0 01-9.344 9.344 9.343 9.343 0 01-9.344-9.344c0-1.398.326-2.714.881-3.905 1.479-3.204 4.705-5.439 8.463-5.439s6.984 2.235 8.463 5.439a9.284 9.284 0 01.881 3.905zM32.634 46.232c0-14.484 13.766-27.195 29.463-27.195h135.977c14.441 0 24.927 11.438 24.927 27.195v32.634H32.634V46.232zM27.195 176.77a5.434 5.434 0 015.439-5.439v10.878a5.435 5.435 0 01-5.439-5.439zm201.246 5.439v-10.878a5.434 5.434 0 015.439 5.439 5.434 5.434 0 01-5.439 5.439z" fill="#010002" stroke="none"/><path d="M190.367 214.843H70.708c-3.008 0-5.439 2.431-5.439 5.439s2.431 5.439 5.439 5.439h119.659c3.008 0 5.439-2.431 5.439-5.439s-2.431-5.439-5.439-5.439zM59.83 209.404h141.416c3.008 0 5.439-2.431 5.439-5.439s-2.431-5.439-5.439-5.439H59.83c-3.008 0-5.439 2.431-5.439 5.439s2.431 5.439 5.439 5.439z" fill="#010002" stroke="none"/></svg>
