<svg xmlns="http://www.w3.org/2000/svg" viewBox="-12 -12 84 84" width="100" height="100" stroke="#000" stroke-width="0"><path d="M58.798 47.571L36.343 25.116a6.45 6.45 0 00-4.596-1.897c-.842 0-1.657.161-2.415.462L15.467 10.848A7.944 7.944 0 0016 8.001c0-4.411-3.589-8-8-8s-8 3.589-8 8 3.589 8 8 8c.88 0 1.725-.148 2.518-.412l13.157 13.755a6.51 6.51 0 001.44 7.001L47.57 58.798c.774.775 1.809 1.202 2.911 1.202s2.137-.427 2.912-1.202l5.404-5.405a4.123 4.123 0 00.001-5.822zM34.929 26.53L54.42 46.021l-8.399 8.4-1.776-1.776 1.548-1.547a5.76 5.76 0 000-8.134L34.855 32.027a5.757 5.757 0 00-8.134 0l-1.233 1.233a4.5 4.5 0 01.263-3.605c.005-.008.014-.012.018-.021.109-.206.22-.383.333-.547.132-.179.263-.359.426-.521l2.036-2.035c.158-.158.334-.288.511-.419.167-.116.348-.228.558-.34.017-.009.03-.022.046-.032a4.474 4.474 0 012.067-.521c1.207 0 2.337.466 3.183 1.311zm-3.31 13.464c1.301-.703 3.053-.472 4.129.605a3.469 3.469 0 011.023 2.469c0 .589-.146 1.156-.418 1.66l-4.734-4.734zm5.543-.809a5.452 5.452 0 00-3.883-1.609c-1.134 0-2.21.348-3.121.982l-3.569-3.569 1.547-1.547a3.755 3.755 0 015.306 0L44.38 44.38a3.756 3.756 0 010 5.306l-1.548 1.547-5.042-5.042a5.44 5.44 0 00.982-3.121 5.458 5.458 0 00-1.61-3.885zM6.981 13.907A.99.99 0 006 13.001a.988.988 0 00-.735.334 6.047 6.047 0 01-.777-.479.987.987 0 00.512-.855 1 1 0 00-1-1 .987.987 0 00-.855.512 6.047 6.047 0 01-.479-.777.99.99 0 00.334-.735.99.99 0 00-.907-.981C2.036 8.688 2 8.349 2 8.001s.036-.687.093-1.019A.99.99 0 003 6.001a.988.988 0 00-.334-.735c.14-.272.301-.531.479-.777A.99.99 0 004 5.001a1 1 0 001-1 .987.987 0 00-.512-.855c.246-.178.505-.339.777-.479A.988.988 0 006 3.001a.991.991 0 00.981-.907c.332-.057.671-.093 1.019-.093s.687.036 1.019.093a.991.991 0 00.981.907.988.988 0 00.735-.334c.272.14.531.301.777.479a.985.985 0 00-.512.855 1 1 0 001 1 .987.987 0 00.855-.512c.178.246.339.505.479.777a.988.988 0 00-.334.735c0 .519.4.932.907.981.057.332.093.671.093 1.019s-.036.687-.093 1.019a.99.99 0 00-.907.981.99.99 0 00.328.731c-.14.272-.298.533-.475.778a.986.986 0 00-.853-.509 1 1 0 00-1 1c0 .367.207.674.501.848-.064.047-.12.105-.186.149l-.021.012c-.18.119-.377.211-.57.31a.99.99 0 00-.725-.319.99.99 0 00-.981.907c-.331.057-.67.093-1.018.093s-.687-.036-1.019-.094zm5.428.765l.014-.011c.378-.252.73-.539 1.06-.85l.08-.073c.323-.314.617-.656.884-1.02.013-.017.03-.031.042-.049l13.059 12.087c-.081.069-.159.142-.237.214-.053.049-.111.096-.162.146l-2.036 2.036c-.044.044-.084.095-.127.141a7.016 7.016 0 00-.246.272L12.409 14.672zM57.384 51.98l-5.404 5.405c-.795.795-2.2.795-2.995 0l-1.549-1.549 8.399-8.4 1.55 1.549a2.122 2.122 0 01-.001 2.995z" stroke="none"/><circle cx="8" cy="4.001" r="1" stroke="none"/><circle cx="6" cy="6.001" r="1" stroke="none"/><circle cx="10" cy="6.001" r="1" stroke="none"/><circle cx="12" cy="8.001" r="1" stroke="none"/><circle cx="8" cy="12.001" r="1" stroke="none"/><circle cx="8" cy="8.001" r="1" stroke="none"/><circle cx="4" cy="8.001" r="1" stroke="none"/><circle cx="6" cy="10.001" r="1" stroke="none"/><circle cx="10" cy="10.001" r="1" stroke="none"/></svg>
