<svg xmlns="http://www.w3.org/2000/svg" width="100" height="100" viewBox="-89.7 -89.7 627.9 627.9" stroke="#000" stroke-width="0"><path d="M254.32 122.545a2.373 2.373 0 01-.92-1.872c0-.736.34-1.425.92-1.866l57.816-44.452a2.376 2.376 0 012.859-.016 2.359 2.359 0 01.765 2.75l-11.621 29.431 14.961.044s1.434.076 3.423.246l-.005-.246c1.264-.027 30.199-.342 50.413 19.488 12.433 12.192 18.736 28.813 18.736 49.388h-28.225c0-12.895-3.357-22.452-10.276-29.239-9.844-9.658-24.332-11.155-28.744-11.374h-20.279l11.622 29.434a2.358 2.358 0 01-3.628 2.737l-57.817-44.453zM36.904 260.347h69.892v-25.631H36.904v25.631zm78.408-208.068c4.572 0 8.293-3.721 8.293-8.292s-3.721-8.288-8.293-8.288c-4.571 0-8.292 3.721-8.292 8.288s3.721 8.292 8.292 8.292zm53.81 0c4.571 0 8.292-3.721 8.292-8.292s-3.722-8.288-8.292-8.288c-4.573 0-8.288 3.721-8.288 8.288s3.715 8.292 8.288 8.292zm18.563 135.354h-80.889v5.34H36.904v-25.631h150.781v20.291zm-10.27-11.06h-20.638v7.16h20.638v-7.16zM23.339 206.538H106.8v14.607H23.339v52.772H106.8v28.749H3.363V0h215.611v187.633h-17.713v-33.862H23.339v52.767zM147.256 43.987c0 12.052 9.806 21.858 21.861 21.858 12.052 0 21.863-9.806 21.863-21.858 0-12.055-9.807-21.861-21.863-21.861-12.061 0-21.861 9.806-21.861 21.861zm-53.802 0c0 12.052 9.807 21.858 21.858 21.858 12.053 0 21.859-9.806 21.859-21.858 0-12.055-9.806-21.861-21.859-21.861-12.051 0-21.858 9.806-21.858 21.861zm-70.115 94.23h177.916V85.451H23.339v52.766zm13.565-39.196h150.781v25.63H36.904v-25.63zm119.872 15.456h20.638v-7.163h-20.638v7.163zm166.37 299.544v14.786c40.823 1.346 70.271 5.122 70.271 9.576 0 5.594-46.085 10.118-102.939 10.118-56.857 0-102.946-4.524-102.946-10.118 0-4.006 23.78-7.451 58.191-9.084v-15.288H123.717V208.729h321.422v205.292H323.146zm100.882-17.592V224.57H144.831v171.858h279.197z" stroke="none"/></svg>
