<?xml version="1.0" encoding="UTF-8" standalone="no"?>
<svg
   xmlns:dc="http://purl.org/dc/elements/1.1/"
   xmlns:cc="http://creativecommons.org/ns#"
   xmlns:rdf="http://www.w3.org/1999/02/22-rdf-syntax-ns#"
   xmlns:svg="http://www.w3.org/2000/svg"
   xmlns="http://www.w3.org/2000/svg"
   xmlns:sodipodi="http://sodipodi.sourceforge.net/DTD/sodipodi-0.dtd"
   xmlns:inkscape="http://www.inkscape.org/namespaces/inkscape"
   width="150"
   height="150"
   version="1.1"
   id="svg46"
   sodipodi:docname="eadcfed66c2178f6fbcadd4f0d849396.svg"
   inkscape:export-filename="/home/ramon/Downloads/eadcfed66c2178f6fbcadd4f0d849396.svg.png"
   inkscape:export-xdpi="96"
   inkscape:export-ydpi="96"
   inkscape:version="0.92.2 5c3e80d, 2017-08-06">
  <metadata
     id="metadata52">
    <rdf:RDF>
      <cc:Work
         rdf:about="">
        <dc:format>image/svg+xml</dc:format>
        <dc:type
           rdf:resource="http://purl.org/dc/dcmitype/StillImage" />
        <dc:title></dc:title>
      </cc:Work>
    </rdf:RDF>
  </metadata>
  <defs
     id="defs50" />
  <sodipodi:namedview
     pagecolor="#ffffff"
     bordercolor="#666666"
     borderopacity="1"
     objecttolerance="10"
     gridtolerance="10"
     guidetolerance="10"
     inkscape:pageopacity="0"
     inkscape:pageshadow="2"
     inkscape:window-width="1920"
     inkscape:window-height="1018"
     id="namedview48"
     showgrid="false"
     inkscape:zoom="2.9431605"
     inkscape:cx="98.497056"
     inkscape:cy="84.421794"
     inkscape:window-x="0"
     inkscape:window-y="34"
     inkscape:window-maximized="1"
     inkscape:current-layer="svg46"
     showguides="true"
     inkscape:guide-bbox="true" />
  <style
     id="style2">
    .st0{fill:#DBDDE1;} .st1{fill:#83878E;} .st2{fill:#6A737F;} .st3{fill:#F3F3F3;} .st4{fill:#F9F9F9;} .st5{fill:#36393E;} .st6{fill:#282B30;} .st7{fill:#4CD964;} .st8{fill:#E9E7E7;} .st9{fill:none;stroke:#F3F3F3;stroke-miterlimit:10;}
  </style>
  <g
     id="g1469">
    <path
       inkscape:connector-curvature="0"
       style="fill:#225500"
       id="path4"
       class="st0"
       d="m 39.71356,122.33814 h 4 v -16 h -4 c -4.4,0 -8,3.6 -8,8 0,4.4 3.6,8 8,8 z" />
    <path
       inkscape:connector-curvature="0"
       style="fill:#112b00"
       id="path6"
       class="st1"
       d="m 38.21356,129.33814 h 4 c 2.2,0 4,-1.8 4,-4 v -22 c 0,-2.2 -1.8,-4.000005 -4,-4.000005 h -4 c -2.2,0 -4,1.800005 -4,4.000005 v 22 c 0,2.2 1.8,4 4,4 z" />
    <path
       inkscape:connector-curvature="0"
       style="fill:#225500"
       id="path8"
       class="st2"
       d="m 41.41356,99.338135 h 0.8 c 2.2,0 4,1.800005 4,4.000005 v 22 c 0,0.6 -0.1,1.1 -0.4,1.6 -2.7,-2.9 -4.4,-6.7 -4.4,-11 z" />
    <path
       inkscape:connector-curvature="0"
       style="fill:#225500"
       id="path10"
       class="st0"
       d="m 103.21356,122.33814 h -4 v -16 h 4 c 4.4,0 8,3.6 8,8 0,4.4 -3.6,8 -8,8 z m -24.8,-76.400005 h -14 c -1.1,0 -2,-0.9 -2,-2 v -26 c 0,-1.1 0.9,-2 2,-2 h 14 c 1.1,0 2,0.9 2,2 v 26 c 0,1.1 -0.9,2 -2,2 z" />
    <path
       inkscape:connector-curvature="0"
       style="fill:#225500"
       id="path12"
       class="st0"
       d="m 75.71356,33.938135 v 14 c 0,1.1 -0.1,2 1,2 h 21 c 3.9,0 7,-3.1 7,-7 v -4 c 0,-3.9 -3.1,-7 -7,-7 h -21 c -1.1,0 -1,0.9 -1,2 z m -7.3,0 v 14 c 0,1.1 -0.9,2 -2,2 h -21 c -3.9,0 -7,-3.1 -7,-7 v -4 c 0,-3.9 3.1,-7 7,-7 h 21 c 1.1,0 2,0.9 2,2 z" />
    <path
       inkscape:connector-curvature="0"
       style="fill:#338000"
       id="path14"
       class="st3"
       d="m 84.41356,66.938135 h -26 c -8.8,0 -16,-7.2 -16,-16 v -16 c 0,-8.8 7.2,-16 16,-16 h 26 c 8.8,0 16,7.2 16,16 v 16 c 0,8.8 -7.1,16 -16,16 z" />
    <path
       inkscape:connector-curvature="0"
       style="fill:#44aa00"
       id="path16"
       class="st4"
       d="m 84.41356,61.938135 h -26 c -8.8,0 -16,-7.2 -16,-16 v -11 c 0,-8.8 7.2,-16 16,-16 h 26 c 8.8,0 16,7.2 16,16 v 11 c 0,8.8 -7.1,16 -16,16 z" />
    <path
       style="fill:#36393e"
       inkscape:connector-curvature="0"
       id="path18"
       class="st5"
       d="m 83.41356,52.938135 h -24 c -5.5,0 -10,-4.5 -10,-10 v -7 c 0,-5.5 4.5,-10 10,-10 h 24 c 5.5,0 10,4.5 10,10 v 7 c 0,5.5 -4.4,10 -10,10 z" />
    <path
       style="fill:#282b30"
       inkscape:connector-curvature="0"
       id="path20"
       class="st6"
       d="m 83.41356,25.938135 h -24 c -5.5,0 -10,4.5 -10,10 v 4 c 0,-5.5 4.5,-10 10,-10 h 24 c 5.5,0 10,4.5 10,10 v -4 c 0,-5.5 -4.4,-10 -10,-10 z" />
    <circle
       style="fill:#aa0000"
       id="circle22"
       class="st7"
       r="3"
       cy="39.938118"
       cx="85.113564" />
    <circle
       style="fill:#ffffff"
       id="circle24"
       class="st7"
       r="3"
       cy="39.938118"
       cx="57.31356" />
    <path
       inkscape:connector-curvature="0"
       style="fill:#225500"
       id="path26"
       class="st8"
       d="m 80.41356,66.938135 h -18 v -9 c 0,-0.6 0.4,-1 1,-1 h 16 c 0.6,0 1,0.4 1,1 z" />
    <path
       inkscape:connector-curvature="0"
       style="fill:#338000"
       id="path28"
       class="st0"
       d="m 62.41356,61.938135 h 18 v 5 h -18 z" />
    <path
       inkscape:connector-curvature="0"
       style="fill:#112b00"
       id="path30"
       class="st1"
       d="m 104.71356,129.33814 h -4 c -2.2,0 -4,-1.8 -4,-4 v -22 c 0,-2.2 1.8,-4.000005 4,-4.000005 h 4 c 2.2,0 4,1.800005 4,4.000005 v 22 c 0,2.2 -1.8,4 -4,4 z" />
    <path
       inkscape:connector-curvature="0"
       style="fill:#2d5016"
       id="path32"
       class="st2"
       d="m 101.41356,99.338135 h -0.7 c -2.2,0 -4,1.800005 -4,4.000005 v 22 c 0,0.6 0.1,1.1 0.4,1.6 2.7,-2.9 4.4,-6.7 4.4,-11 V 99.338135 Z" />
    <path
       inkscape:connector-curvature="0"
       style="fill:#44aa00"
       id="path34"
       class="st4"
       d="m 85.41356,124.93814 h -28 c -8.8,0 -16,-7.2 -16,-16 V 87.938135 c 0,-8.8 7.2,-16 16,-16 h 28 c 8.8,0 16,7.2 16,16 v 21.000005 c 0,8.8 -7.1,16 -16,16 z" />
    <path
       inkscape:connector-curvature="0"
       style="fill:#338000"
       id="path38"
       class="st3"
       d="m 85.41356,117.93814 h -28 c -8.8,0 -16,-7.2 -16,-16 v 8 c 0,8.8 7.2,16 16,16 h 28 c 8.8,0 16,-7.2 16,-16 v -8 c 0,8.8 -7.1,16 -16,16 z" />
  </g>
  <g
     inkscape:groupmode="layer"
     id="layer1"
     inkscape:label="Layer 1"
     transform="translate(0,36.6)" />
</svg>
